<svg width="42" height="41" viewBox="0 0 42 41" fill="none" xmlns="http://www.w3.org/2000/svg">
<rect width="42" height="41" rx="4" fill="#F1F1F1"/>
<path d="M26.753 20.6917C27.7286 20.6917 28.5223 19.8981 28.5223 18.9221C28.5223 17.9462 27.7286 17.1522 26.753 17.1522H23.1636L25.9806 15.8926H26.7528C27.7285 15.8926 28.5221 15.099 28.5221 14.123C28.5221 13.147 27.7285 12.3531 26.7528 12.3531H26.1979C26.2116 12.2763 26.2214 12.1984 26.2214 12.1177L26.2216 10.3426C26.2216 9.60254 25.6194 9 24.879 9H17.1208C16.3807 9 15.7785 9.60221 15.7785 10.3426V12.1178C15.7785 12.1982 15.7884 12.2765 15.8021 12.3532H15.2475C14.2715 12.3532 13.4775 13.1472 13.4775 14.1232C13.4775 15.0992 14.2715 15.8928 15.2475 15.8928H18.8361L16.0187 17.152H15.2475C14.2715 17.152 13.4776 17.946 13.4776 18.922C13.4776 19.898 14.2715 20.6916 15.2475 20.6916H18.8364L16.0197 21.9512L15.2475 21.9513C14.2715 21.9513 13.4776 22.7453 13.4776 23.7213C13.4776 24.6973 14.2715 25.4912 15.2475 25.4912H15.9102V26.9757C15.9102 27.7162 16.5124 28.3183 17.2525 28.3183H17.9152V31.4465C17.9152 31.7521 18.1627 32 18.4686 32H23.531C23.8365 32 24.0844 31.7521 24.0844 31.4465V28.3183H24.7474C25.488 28.3183 26.0901 27.7161 26.0901 26.9757V25.4912H26.7531C27.7287 25.4912 28.5223 24.6973 28.5223 23.7213C28.5223 22.7453 27.7287 21.9513 26.7531 21.9513H23.1642L25.9809 20.6917L26.753 20.6917ZM16.8856 12.1176V10.3428C16.8856 10.213 16.9912 10.1071 17.121 10.1071H24.8791C25.0094 10.1071 25.1148 10.213 25.1148 10.3428V12.118C25.1148 12.2478 25.0092 12.3534 24.8791 12.3534H17.121C16.991 12.353 16.8856 12.2474 16.8856 12.1176V12.1176ZM14.5846 14.123C14.5846 13.7573 14.8819 13.4599 15.2476 13.4599H26.7529C27.1177 13.4599 27.4152 13.7573 27.4152 14.123C27.4152 14.4883 27.1179 14.7856 26.7529 14.7856H15.2476C14.8821 14.7856 14.5846 14.4883 14.5846 14.123ZM21.5471 15.8926H23.2694L20.4523 17.1522H18.7303L21.5471 15.8926ZM14.5846 18.9223C14.5846 18.5566 14.8819 18.2593 15.2476 18.2593H16.1361H16.1373H16.1391H20.5693H20.5705H20.5723H26.7525C27.1173 18.2593 27.4148 18.5566 27.4148 18.9223C27.4148 19.2876 27.1175 19.5849 26.7525 19.5849H15.2472C14.8817 19.5849 14.5842 19.2875 14.5842 18.9223H14.5846ZM22.9774 30.893H21.5535V29.6061C21.5535 29.3005 21.306 29.0526 21.0001 29.0526C20.6942 29.0526 20.4466 29.3005 20.4466 29.6061V30.893H19.0225V28.3183H22.9779L22.9777 30.893H22.9774ZM24.9832 26.976C24.9832 27.1063 24.8776 27.2117 24.7475 27.2117H23.531L18.4691 27.2119H17.253C17.1232 27.2119 17.0176 27.1063 17.0176 26.9761V25.4917H24.9832L24.9832 26.976ZM27.4155 23.7212C27.4155 24.0869 27.1181 24.3843 26.7531 24.3843H15.2479C14.8822 24.3843 14.5849 24.0869 14.5849 23.7212C14.5849 23.3556 14.8822 23.0582 15.2479 23.0582H16.1352C16.1359 23.0582 16.1367 23.0586 16.1379 23.0586C16.139 23.0586 16.14 23.0582 16.1412 23.0582H20.5689C20.5695 23.0582 20.5703 23.0586 20.5715 23.0586C20.5726 23.0586 20.5736 23.0582 20.5748 23.0582H26.7537C27.1182 23.0586 27.4157 23.3556 27.4157 23.7212H27.4155ZM20.4539 21.9516H18.7311L21.5475 20.692H23.2703L20.4539 21.9516Z" fill="#2DAD00"/>
</svg>
