<svg width="42" height="40" viewBox="0 0 42 40" fill="none" xmlns="http://www.w3.org/2000/svg">
<rect x="0.570312" width="40.86" height="40" rx="4" fill="#F1F1F1"/>
<path d="M26.6415 19.1092L26.6377 19.106L26.6415 19.1098L26.6529 19.119L26.6415 19.1092Z" fill="#2DAD00"/>
<path d="M29.0883 26.6832V19.7106C29.5123 19.2899 29.7514 18.718 29.753 18.1207C29.7545 17.5236 29.5182 16.9503 29.0963 16.5277C28.6744 16.105 28.1016 15.8678 27.5043 15.8683H27.4049L15.7511 9.17732C15.4794 9.02077 15.161 8.96539 14.8521 9.02113C14.5435 9.07669 14.2644 9.2398 14.0644 9.48156L13.9341 9.63918C13.6854 9.93915 13.5807 10.333 13.6476 10.717C13.7147 11.1007 13.9465 11.436 14.282 11.6341L14.0126 12.0317L13.443 11.7092H13.4432C13.2809 11.6181 13.0922 11.5858 12.9089 11.6174C12.7257 11.649 12.5587 11.7426 12.4362 11.8826L9.76789 14.9545C9.60921 15.1373 9.54088 15.3819 9.58206 15.6205C9.62324 15.8592 9.76932 16.0667 9.98018 16.186L10.4076 16.4281C10.3212 17.0573 10.4914 17.6951 10.8801 18.1975C11.2686 18.7 11.843 19.0254 12.4738 19.1001C13.1046 19.1746 13.739 18.9927 14.2344 18.5949L14.6872 18.8514L14.687 18.8512C14.8924 18.9671 15.138 18.9876 15.3596 18.907C15.5811 18.8266 15.7564 18.6533 15.8397 18.4329L17.2625 14.6557C17.3313 14.4757 17.3331 14.2769 17.2674 14.0957C17.2019 13.9145 17.0733 13.7629 16.9052 13.6687L16.2287 13.2846L16.4736 12.9157L25.2589 18.0545V18.116C25.2576 18.7142 25.4957 19.2881 25.9199 19.71V26.6767H25.2534C24.3117 26.6778 23.409 27.0523 22.7432 27.7181C22.0774 28.3839 21.7029 29.2866 21.7018 30.2282V30.5697C21.7018 30.8074 21.8946 31 22.1323 31H31.9999C32.114 31 32.2235 30.9547 32.3043 30.874C32.385 30.7932 32.4303 30.6839 32.4303 30.5697V30.2282C32.4292 29.3228 32.0829 28.452 31.4619 27.7933C30.8408 27.1345 29.9918 26.7374 29.0881 26.6833L29.0883 26.6832ZM27.5048 16.7288C27.8728 16.7286 28.2258 16.8746 28.4861 17.1346C28.7464 17.3946 28.8929 17.7475 28.8931 18.1153C28.8932 18.4832 28.7472 18.8362 28.4871 19.0965C28.2269 19.3567 27.8742 19.5031 27.5063 19.5031C27.1383 19.5031 26.7855 19.357 26.5252 19.097C26.265 18.8368 26.1188 18.4839 26.1188 18.116C26.1191 17.7484 26.2654 17.396 26.5251 17.136C26.7849 16.876 27.1373 16.7296 27.5048 16.7288L27.5048 16.7288ZM12.7498 18.2546C12.3783 18.2537 12.0201 18.1158 11.7441 17.8671C11.4681 17.6184 11.2934 17.2768 11.2539 16.9074L13.386 18.1145C13.1866 18.207 12.9695 18.2549 12.7498 18.2546V18.2546ZM16.438 14.394L15.0534 18.0718L14.3835 17.6926L11.7092 16.1733L10.4601 15.4686L13.058 12.4786L16.438 14.394ZM14.7731 12.4398L15.0216 12.0725L15.7243 12.4811L15.4758 12.8539L14.7731 12.4398ZM25.4586 17.1773L14.7217 10.8939C14.6025 10.8245 14.5197 10.706 14.4958 10.5702C14.4718 10.4342 14.5091 10.2947 14.5975 10.1886L14.7221 10.0107C14.8155 9.90829 14.9502 9.85344 15.0884 9.86161C15.1708 9.86161 15.2516 9.88326 15.3231 9.92426L26.2921 16.2231C25.9306 16.4558 25.6428 16.7868 25.4627 17.1773L25.4586 17.1773ZM26.7775 20.2451C27.2463 20.404 27.7545 20.404 28.2232 20.2451V26.6766H26.7819L26.7775 20.2451ZM22.565 30.1386C22.589 29.4412 22.8827 28.7802 23.3841 28.2952C23.8857 27.8099 24.556 27.5383 25.2537 27.5374H28.8818C29.5794 27.5388 30.2491 27.8106 30.7501 28.2958C31.2512 28.781 31.5446 29.4416 31.5686 30.1386H22.565Z" fill="#2DAD00"/>
</svg>
