<svg width="40" height="40" viewBox="0 0 40 40" fill="none" xmlns="http://www.w3.org/2000/svg">
<rect x="0.847656" width="38.3048" height="40" rx="4" fill="#F1F1F1"/>
<path d="M20.0005 11.9367C21.9908 11.9367 23.7926 12.7435 25.0969 14.0477C26.4011 15.3519 27.2079 17.1536 27.2079 19.1442C27.2079 21.268 26.3176 22.612 25.5053 23.8386C24.9033 24.7472 24.3508 25.5822 24.3508 26.592V29.0036H24.3487C24.3487 29.5549 24.1256 30.0537 23.7649 30.4143C23.4037 30.7756 22.9043 31 22.3542 31H17.6469C17.097 31 16.5975 30.7756 16.2361 30.4143C15.8761 30.0543 15.6523 29.5549 15.6523 29.0036H15.6503V26.592C15.6503 25.5822 15.0976 24.7473 14.4958 23.8386C13.6835 22.6118 12.7932 21.268 12.7932 19.1442C12.7932 17.1539 13.5999 15.352 14.9041 14.0477C16.2084 12.7435 18.01 11.9367 20.0006 11.9367H20.0005ZM10.3633 19.6678C10.0788 19.6678 9.84766 19.4367 9.84766 19.1522C9.84766 18.8678 10.0788 18.6366 10.3633 18.6366H11.5968C11.8812 18.6366 12.1124 18.8678 12.1124 19.1522C12.1124 19.4367 11.8813 19.6678 11.5968 19.6678H10.3633ZM11.3986 14.7784C11.1525 14.6375 11.0676 14.3235 11.2091 14.0774C11.35 13.8314 11.6641 13.7464 11.9101 13.8879L12.9785 14.5046C13.2245 14.6461 13.3087 14.9596 13.1679 15.2056C13.0271 15.4517 12.713 15.5358 12.4669 15.3951L11.3986 14.7784ZM14.7363 11.0618C14.5955 10.8158 14.6798 10.5017 14.9258 10.3608C15.1719 10.2199 15.4853 10.3043 15.6268 10.5503L16.2435 11.6187C16.385 11.8647 16.3001 12.1781 16.054 12.3197C15.808 12.4606 15.4946 12.3762 15.353 12.1302L14.7363 11.0618ZM29.6369 18.6365C29.9213 18.6365 30.1525 18.8676 30.1525 19.1521C30.1525 19.4366 29.9213 19.6677 29.6369 19.6677H28.4034C28.1189 19.6677 27.8877 19.4366 27.8877 19.1521C27.8877 18.8676 28.1189 18.6365 28.4034 18.6365H29.6369ZM28.0901 13.8887C28.3361 13.7478 28.6495 13.8321 28.7911 14.0782C28.9326 14.3242 28.8477 14.6376 28.6016 14.7792L27.5332 15.3959C27.2872 15.5368 26.9738 15.4524 26.8322 15.2064C26.6907 14.9603 26.7757 14.6469 27.0217 14.5054L28.0901 13.8887ZM24.3735 10.5509C24.5144 10.3049 24.8284 10.2199 25.0745 10.3614C25.3205 10.5023 25.4055 10.8164 25.264 11.0625L24.6473 12.1308C24.5064 12.3769 24.1923 12.4618 23.9463 12.3203C23.7002 12.1794 23.6153 11.8653 23.7568 11.6193L24.3735 10.5509ZM19.4841 9.51562C19.4841 9.23118 19.7152 9 19.9997 9C20.2841 9 20.5153 9.23116 20.5153 9.51562V10.7491C20.5153 11.0336 20.2841 11.2648 19.9997 11.2648C19.7152 11.2648 19.4841 11.0336 19.4841 10.7491V9.51562ZM19.9997 15.4807C19.7152 15.4807 19.4841 15.2495 19.4841 14.965C19.4841 14.6806 19.7152 14.4494 19.9997 14.4494C21.2965 14.4494 22.47 14.9752 23.3199 15.8244C24.1698 16.6737 24.695 17.8478 24.695 19.144C24.695 19.4285 24.4638 19.6597 24.1793 19.6597C23.8949 19.6597 23.6637 19.4285 23.6637 19.144C23.6637 18.1323 23.2533 17.2164 22.5907 16.5532C21.928 15.8906 21.0114 15.4801 19.9998 15.4801L19.9997 15.4807ZM23.3199 26.4599C23.3199 26.4458 23.3206 26.4315 23.322 26.4174C23.3752 25.19 23.9852 24.2686 24.6464 23.2711C25.3764 22.1697 26.1758 20.9619 26.1758 19.1448C26.1758 17.4395 25.4842 15.8954 24.3668 14.7773C23.2493 13.6598 21.7051 12.969 19.9994 12.969C18.2941 12.969 16.75 13.6605 15.6319 14.7773C14.5144 15.8949 13.8229 17.439 13.8229 19.1448C13.8229 20.9619 14.6229 22.1697 15.3529 23.2711C16.0135 24.2686 16.6235 25.1901 16.6774 26.4174C16.6788 26.4315 16.6794 26.4458 16.6794 26.4599V26.466L16.68 26.5011C16.6909 26.7492 16.7973 26.9742 16.9645 27.1414C17.1391 27.316 17.3804 27.4245 17.6459 27.4245H22.3532C22.618 27.4245 22.86 27.316 23.0346 27.1414C23.2018 26.9742 23.3082 26.7492 23.319 26.5011L23.3196 26.466V26.4599H23.3199ZM23.3179 28.2062C23.0314 28.3652 22.7024 28.4555 22.3533 28.4555H17.646C17.2962 28.4555 16.9673 28.3652 16.6814 28.2062V29.0036H16.6794C16.6794 29.2672 16.7886 29.5091 16.9652 29.6849C17.1398 29.8595 17.3812 29.968 17.6466 29.968H22.3539C22.6187 29.968 22.8607 29.8595 23.0353 29.6849C23.2113 29.509 23.3204 29.267 23.3204 29.0036H23.3183V28.2062H23.3179Z" fill="#2DAD00"/>
</svg>
